<?xml version="1.0" standalone="no"?>
<!DOCTYPE svg PUBLIC "-//W3C//DTD SVG 20010904//EN"
 "http://www.w3.org/TR/2001/REC-SVG-20010904/DTD/svg10.dtd">
<svg version="1.0" xmlns="http://www.w3.org/2000/svg"
 width="1269.000000pt" height="672.000000pt" viewBox="0 0 1269.000000 672.000000"
 preserveAspectRatio="xMidYMid meet">
<metadata>
Created by potrace 1.16, written by Peter Selinger 2001-2019
</metadata>
<g transform="translate(0.000000,672.000000) scale(0.100000,-0.100000)"
fill="#fff" stroke="#000">
<path d="M0 3360 l0 -3360 2723 0 2722 1 263 414 c229 358 335 521 280 425
-13 -22 -480 -762 -516 -817 l-14 -23 1480 0 1480 0 173 240 c95 132 176 240
181 240 4 0 157 -108 340 -240 l333 -240 1623 0 1622 0 0 3360 0 3360 -382 -2
-383 -3 -222 -365 c-479 -786 -625 -1021 -600 -965 2 6 177 293 387 640 211
346 392 644 403 662 l19 33 -1570 0 -1569 0 -258 -557 c-141 -307 -261 -562
-265 -566 -4 -5 -232 246 -506 557 l-498 566 -1243 0 -1244 0 17 -32 c9 -18
119 -224 244 -458 126 -234 435 -811 688 -1284 l460 -858 -1025 -1207 c-564
-663 -1039 -1219 -1056 -1236 -17 -16 -8 -3 20 30 37 44 1655 1955 2001 2362
l44 53 -560 1047 c-308 577 -624 1168 -702 1316 l-142 267 -2374 0 -2374 0 0
-3360z m9471 1679 l539 -242 330 -539 331 -539 55 -537 c30 -295 53 -545 50
-555 -2 -10 -141 -268 -307 -575 l-303 -557 -453 -327 -452 -327 -601 -17
-601 -16 -555 248 -554 248 -241 390 c-132 215 -266 432 -298 481 l-59 90 -61
605 c-34 333 -63 619 -66 635 -4 24 14 65 91 205 52 96 111 202 131 235 19 33
96 173 171 310 75 138 141 253 147 257 5 4 238 171 516 372 l505 365 520 14
c285 8 543 15 573 16 50 1 91 -16 592 -240z m2164 -3658 c468 -366 829 -652
845 -669 13 -14 13 -15 0 -5 -75 52 -1251 977 -1297 1019 -40 37 108 -76 452
-345z"/>
<path d="M7270 6715 c0 -8 972 -1107 975 -1103 3 3 502 1072 512 1096 4 9
-148 12 -741 12 -410 0 -746 -2 -746 -5z"/>
<path d="M8602 235 l-171 -235 496 0 c273 0 494 2 492 4 -2 2 -143 104 -314
226 -170 122 -315 227 -321 231 -8 6 -67 -68 -182 -226z"/>
</g>
</svg>
