<svg id="visual" viewBox="0 0 900 600" width="900" height="600" xmlns="http://www.w3.org/2000/svg" xmlns:xlink="http://www.w3.org/1999/xlink" version="1.1"><rect x="0" y="0" width="900" height="600" fill="#6321aa"></rect><g transform="translate(480.5997597972069 278.646101067377)"><path d="M120.9 -156.6C154 -142.3 176.4 -103.5 186.6 -62.8C196.9 -22.1 195 20.3 177.9 53.2C160.8 86 128.6 109.4 96.4 130.4C64.3 151.5 32.1 170.2 -11.8 186.4C-55.6 202.6 -111.3 216.2 -149.2 197C-187.1 177.8 -207.2 125.8 -226.9 72.1C-246.6 18.3 -266 -37.2 -245.1 -73C-224.3 -108.7 -163.3 -124.7 -115.7 -134.3C-68.2 -143.8 -34.1 -146.9 4.9 -153.7C43.9 -160.4 87.8 -170.8 120.9 -156.6" fill="#a900ba"></path></g></svg>