<?xml version="1.0" encoding="utf-8"?>
<!-- Generator: Adobe Illustrator 16.0.0, SVG Export Plug-In . SVG Version: 6.00 Build 0)  -->
<!DOCTYPE svg PUBLIC "-//W3C//DTD SVG 1.1//EN" "http://www.w3.org/Graphics/SVG/1.1/DTD/svg11.dtd">
<svg version="1.1" xmlns="http://www.w3.org/2000/svg" xmlns:xlink="http://www.w3.org/1999/xlink" x="0px" y="0px" width="1898px"
	 height="1012px" viewBox="0 0 1898 1012" enable-background="new 0 0 1898 1012" xml:space="preserve">
<g id="Layer_2" display="none">
	
		<radialGradient id="SVGID_1_" cx="1246" cy="582" r="717.9484" gradientTransform="matrix(1 0 0 2 0 -582)" gradientUnits="userSpaceOnUse">
		<stop  offset="0.0345" style="stop-color:#5F389E"/>
		<stop  offset="0.0394" style="stop-color:#5F379D;stop-opacity:0.9989"/>
		<stop  offset="0.1452" style="stop-color:#5E298F;stop-opacity:0.9756"/>
		<stop  offset="0.2737" style="stop-color:#5E2187;stop-opacity:0.9472"/>
		<stop  offset="0.4877" style="stop-color:#5E1F84;stop-opacity:0.9"/>
		<stop  offset="0.6804" style="stop-color:#5C2285;stop-opacity:0.9376"/>
		<stop  offset="0.8081" style="stop-color:#562B88;stop-opacity:0.9625"/>
		<stop  offset="0.9166" style="stop-color:#4B3A8E;stop-opacity:0.9837"/>
		<stop  offset="1" style="stop-color:#3E4B95"/>
	</radialGradient>
	<rect x="596" y="-198" display="inline" fill="url(#SVGID_1_)" width="1300" height="1560"/>
</g>
<g id="Layer_1" display="none">
	<ellipse display="inline" fill="#990ABC" cx="788.189" cy="714.465" rx="120.811" ry="120.466"/>
	<ellipse display="inline" fill="#931CE8" cx="837.189" cy="119.465" rx="120.811" ry="120.466"/>
	<linearGradient id="SVGID_2_" gradientUnits="userSpaceOnUse" x1="1240.6519" y1="520.1519" x2="676.3489" y2="-44.1511">
		<stop  offset="0" style="stop-color:#E9FFFC;stop-opacity:0.1"/>
		<stop  offset="0.1539" style="stop-color:#EAFAF9;stop-opacity:0.0846"/>
		<stop  offset="0.3334" style="stop-color:#ECECF0;stop-opacity:0.0667"/>
		<stop  offset="0.5256" style="stop-color:#F0D5E2;stop-opacity:0.0474"/>
		<stop  offset="0.7269" style="stop-color:#F6B4CE;stop-opacity:0.0273"/>
		<stop  offset="0.9331" style="stop-color:#FC8AB5;stop-opacity:0.0067"/>
		<stop  offset="1" style="stop-color:#FF7BAC;stop-opacity:0"/>
	</linearGradient>
	<linearGradient id="SVGID_3_" gradientUnits="userSpaceOnUse" x1="666.5889" y1="160.5913" x2="1250.4103" y2="315.4092">
		<stop  offset="0.2562" style="stop-color:#5F7A9E"/>
		<stop  offset="1" style="stop-color:#3E4B95"/>
	</linearGradient>
	<path display="inline" fill="url(#SVGID_2_)" stroke="url(#SVGID_3_)" stroke-width="2" stroke-miterlimit="10" d="
		M1180.366,575.649c-3.539,13.346-17.228,21.296-30.573,17.757l-533.559-141.49c-13.346-3.539-21.296-17.227-17.757-30.573
		L736.634-99.649c3.539-13.346,17.227-21.296,30.573-17.757l533.559,141.489c13.346,3.539,21.296,17.227,17.757,30.573
		L1180.366,575.649z"/>
	<linearGradient id="SVGID_4_" gradientUnits="userSpaceOnUse" x1="928.8057" y1="105.8525" x2="1481.2197" y2="105.8525">
		<stop  offset="0" style="stop-color:#FF7BAC;stop-opacity:0.1"/>
		<stop  offset="0.291" style="stop-color:#F1A5C6;stop-opacity:0.1291"/>
		<stop  offset="0.7725" style="stop-color:#DCE6ED;stop-opacity:0.1773"/>
		<stop  offset="1" style="stop-color:#D4FFFD;stop-opacity:0.2"/>
	</linearGradient>
	
		<linearGradient id="SVGID_5_" gradientUnits="userSpaceOnUse" x1="1319.2793" y1="-103.5791" x2="1735.0856" y2="6.6844" gradientTransform="matrix(0.7712 -0.6366 0.6366 0.7712 58.0679 1115.3826)">
		<stop  offset="0.2562" style="stop-color:#5F7A9E"/>
		<stop  offset="1" style="stop-color:#3E4B95"/>
	</linearGradient>
	<path display="inline" fill="url(#SVGID_4_)" stroke="url(#SVGID_5_)" stroke-width="2" stroke-miterlimit="10" d="M1479.59,190.61
		c4.103,8.924,0.194,19.482-8.729,23.583L1114.124,378.16c-8.923,4.102-19.48,0.193-23.583-8.73L930.435,21.095
		c-4.101-8.923-0.193-19.481,8.73-23.583l356.737-163.967c8.922-4.102,19.48-0.193,23.582,8.73L1479.59,190.61z"/>
	<linearGradient id="SVGID_6_" gradientUnits="userSpaceOnUse" x1="1320.1494" y1="1011.0771" x2="1221.036" y2="953.854">
		<stop  offset="0" style="stop-color:#E90C00"/>
		<stop  offset="0.5351" style="stop-color:#CB3500"/>
		<stop  offset="0.8128" style="stop-color:#BF4500"/>
	</linearGradient>
	<ellipse display="inline" fill="url(#SVGID_6_)" cx="1270.592" cy="982.465" rx="58.408" ry="53.466"/>
	<path display="inline" fill="#990ABC" d="M1510.279,474.828c15.98-64.905,91.396-106.544,168.443-93.005
		c77.051,13.541,126.553,77.133,110.571,142.038s-91.396,106.544-168.444,93.004S1494.297,539.733,1510.279,474.828z"/>
	<path display="inline" fill="#931CE8" d="M1427.77,838.342c15.981-64.905,91.397-106.545,168.445-93.005
		c77.049,13.54,126.552,77.133,110.57,142.039c-15.981,64.905-91.396,106.543-168.444,93.004
		C1461.293,966.839,1411.788,903.248,1427.77,838.342z"/>
	
		<linearGradient id="SVGID_7_" gradientUnits="userSpaceOnUse" x1="1420.6826" y1="990.0889" x2="1310.8209" y2="926.6602" gradientTransform="matrix(-0.979 -0.2037 0.2037 -0.979 2299.0493 1356.434)">
		<stop  offset="0" style="stop-color:#E90C00"/>
		<stop  offset="0.5351" style="stop-color:#CB3500"/>
		<stop  offset="0.8128" style="stop-color:#BF4500"/>
	</linearGradient>
	<path display="inline" fill="url(#SVGID_7_)" d="M1089.653,128.146c7.093-28.807,43.04-46.852,80.291-40.306
		c37.25,6.546,61.696,35.206,54.603,64.012c-7.092,28.806-43.039,46.852-80.289,40.306
		C1107.007,185.611,1082.561,156.952,1089.653,128.146z"/>
	<linearGradient id="SVGID_8_" gradientUnits="userSpaceOnUse" x1="1334.3301" y1="1228.6064" x2="842.19" y2="736.4664">
		<stop  offset="0" style="stop-color:#4158D0;stop-opacity:0.1"/>
		<stop  offset="1" style="stop-color:#F6FFD4;stop-opacity:0.1"/>
	</linearGradient>
	<path display="inline" fill="url(#SVGID_8_)" stroke="#F7F7F9" stroke-width="0.25" stroke-miterlimit="10" d="M1441.443,982.535
		c0,189.284-158.116,342.724-353.184,342.724c-195.047,0-353.184-153.439-353.184-342.724
		c0-178.203,140.145-324.629,319.314-341.158c11.156-1.043,22.44-1.56,33.869-1.56c42.672,0,83.565,7.349,121.438,20.798
		C1344.937,708.662,1441.443,834.67,1441.443,982.535z"/>
	<path display="inline" fill="#FF7BAC" d="M1588.928,449.537c0,97.49-79.987,176.518-178.668,176.518
		c-98.67,0-178.668-79.028-178.668-176.518c0-91.783,70.896-167.199,161.534-175.712c5.644-0.538,11.353-0.803,17.134-0.803
		c21.587,0,42.274,3.785,61.434,10.711C1540.107,308.479,1588.928,373.379,1588.928,449.537z"/>
	<path display="inline" fill="#E9FFFC" d="M1680.443,290.027c0-27.807-25.422-50.348-56.785-50.348
		c-31.359,0-56.785,22.541-56.785,50.348c0,26.179,22.532,47.56,51.34,49.987c-0.118,0.036-0.236-0.015-0.357-0.015c0,0,0,0-0.004,0
		c-0.098,0-0.195,0.136-0.293,0.148c2.066,0.127,4.157-0.025,6.262-0.025c8.395,0,16.521-1.123,24.229-3.123h0.003
		c0.051,0,0.101,0.279,0.151,0.268c-0.051-0.006-0.104,0.144-0.154,0.141c-0.047-0.003-0.095,0.07-0.143,0.067
		c-1.561-0.098-3.135-0.183-4.723-0.194C1664.928,330.223,1680.443,311.749,1680.443,290.027z"/>
	<path display="inline" fill="#FCEE21" d="M1800.443,714.57c0,30.846-24.033,55.851-53.684,55.851
		c-29.646,0-53.684-25.005-53.684-55.851c0-29.039,21.302-52.325,48.535-55.019c-0.111-0.04-0.223,0.448-0.338,0.448
		c0,0,0,0-0.003,0c-0.093,0-0.185-0.583-0.277-0.596c1.954-0.141,3.931-0.42,5.92-0.42c7.936,0,15.618,1.016,22.905,3.016h0.003
		c0.048,0,0.095-0.077,0.143-0.063c-0.048,0.006-0.099-0.044-0.146-0.04c-0.045,0.002-0.09-0.021-0.135-0.018
		c-1.476,0.107-2.964,0.23-4.465,0.244C1785.774,669.953,1800.443,690.475,1800.443,714.57z"/>
	<g display="inline">
		<path fill="#362644" d="M1728.687,1276.271c-6.649-0.898-13.329-2.442-19.969-4.688c-5.464-1.848-10.665-4.089-15.584-6.677
			c8.466-0.858,16.768-2.384,24.817-4.547c44.359-11.894,81.102-43.038,96.025-87.166c2.935-8.68,4.895-17.465,5.928-26.267
			c13.287,21.554,17.418,47.533,9.123,72.057c-0.354,1.046-0.738,2.074-1.131,3.097c8.377-16.395,13.104-34.954,13.104-54.616
			c0-66.531-54.089-120.465-120.811-120.465c-66.723,0-120.811,53.934-120.811,120.465s54.088,120.466,120.811,120.466
			c28.059,0,53.883-9.54,74.39-25.543C1775.979,1274.23,1752.595,1279.491,1728.687,1276.271z"/>
		<path opacity="0.4" fill="#DEBEF4" d="M1827.896,1222.081c-8.05,15.751-19.471,29.502-33.317,40.307
			C1809.513,1252.879,1821.355,1239.125,1827.896,1222.081z"/>
		<path fill="#362644" d="M1827.896,1222.081c0.393-1.022,0.777-2.051,1.131-3.097c8.295-24.523,4.164-50.503-9.123-72.057
			c-1.033,8.802-2.993,17.587-5.928,26.267c-14.924,44.128-51.666,75.272-96.025,87.166c-8.05,2.163-16.352,3.688-24.817,4.547
			c4.919,2.588,10.12,4.829,15.584,6.677c6.64,2.245,13.319,3.789,19.969,4.688c23.908,3.22,47.292-2.041,65.893-13.884
			C1808.426,1251.583,1819.847,1237.832,1827.896,1222.081z"/>
		<path opacity="0.4" fill="#DEBEF4" d="M1827.896,1222.081c0.393-1.022,0.777-2.051,1.131-3.097
			c8.295-24.523,4.164-50.503-9.123-72.057c-1.033,8.802-2.993,17.587-5.928,26.267c-14.924,44.128-51.666,75.272-96.025,87.166
			c-8.05,2.163-16.352,3.688-24.817,4.547c4.919,2.588,10.12,4.829,15.584,6.677c6.64,2.245,13.319,3.789,19.969,4.688
			c23.908,3.22,47.292-2.041,65.893-13.884C1808.426,1251.583,1819.847,1237.832,1827.896,1222.081z"/>
	</g>
	<g display="inline">
		<path fill="#69087A" d="M863.541,1212.103c0.215,3.07,0.07,6.144-0.48,9.205c-0.653,3.634-1.834,7.093-3.497,10.364
			c-3.309-5.632-7.349-11.155-12.06-16.511c-25.93-29.514-72.135-53.968-127.457-63.912c-10.881-1.955-21.619-3.263-32.122-3.952
			c21.399-8.832,50.44-11.57,81.185-6.044c24.753,4.449,46.593,13.541,63.035,25.123c-14.259-12.76-31.907-22.758-51.732-28.934
			c2.813-0.021,5.606-0.137,8.383-0.286c-17.449-4.372-35.764-6.072-54.65-6.072c-5.027,0-10.022-0.107-14.96,0.184
			c0.125,0.015,0.25,0.223,0.375,0.413c-68.262,6.029-121.484,54.441-121.484,114.126c0,63.764,60.752,115.452,135.684,115.452
			c74.939,0,135.685-51.688,135.685-115.452C869.444,1234.074,867.364,1222.764,863.541,1212.103z"/>
		<path fill="#69087A" d="M792.046,1138c0.121,0,0.241-0.594,0.362-0.565c-0.121,0.013-0.25-0.308-0.369-0.3
			c-0.113,0.006-0.227-0.15-0.339-0.145c-0.965,0.058-1.934,0.113-2.903,0.166c1.084,0.271,2.166,0.551,3.243,0.844H792.046z"/>
		<path opacity="0.4" fill="#DEBEF4" d="M863.541,1212.103c-0.095-1.36-0.254-2.72-0.492-4.077
			c-2.63-14.979-13.87-29.65-30.903-41.649C846.453,1179.179,857.325,1194.771,863.541,1212.103z"/>
		<path fill="#69087A" d="M687.926,1147.297c10.502,0.689,21.24,1.997,32.122,3.952c55.322,9.944,101.527,34.398,127.457,63.912
			c4.71,5.355,8.75,10.879,12.06,16.511c1.663-3.271,2.844-6.73,3.497-10.364c0.55-3.062,0.695-6.135,0.48-9.205
			c-6.215-17.331-17.088-32.924-31.395-45.727c-16.442-11.582-38.282-20.674-63.035-25.123
			C738.366,1135.727,709.325,1138.465,687.926,1147.297z"/>
		<path opacity="0.4" fill="#DEBEF4" d="M687.926,1147.297c10.502,0.689,21.24,1.997,32.122,3.952
			c55.322,9.944,101.527,34.398,127.457,63.912c4.71,5.355,8.75,10.879,12.06,16.511c1.663-3.271,2.844-6.73,3.497-10.364
			c0.55-3.062,0.695-6.135,0.48-9.205c-6.215-17.331-17.088-32.924-31.395-45.727c-16.442-11.582-38.282-20.674-63.035-25.123
			C738.366,1135.727,709.325,1138.465,687.926,1147.297z"/>
	</g>
	<g display="inline">
		<path fill="#45064C" d="M1707.997-113.244c-8.65-3.062-17.991-4.734-27.737-4.734c-2.61,0-5.188,0.117-7.736,0.355
			c-34.354,3.159-62.417,27.16-70.543,58.782c0.506,0.535,0.907,1.149,1.228,1.826c3.899,4.035,13.739,7.165,3.312,24.732
			c51.165,41.795,71.218,75.098,99.046,22.597c2.989-5.639,10.897-6.433,15.496-10.769c-1.396,22.706-10.491,40.992-26.68,48.938
			c-26.534,13.027-63.392-6.013-88.313-43.296c-3.744-5.604-3.177-11.358,0.451-17.47c-5.452-4.451-0.055-17.859-3.312-24.732
			c-0.556-0.575-0.99-1.167-1.229-1.823c-1.554,6.045-2.388,12.366-2.388,18.876c0,43.088,36.119,78.017,80.668,78.017
			c44.554,0,80.668-34.929,80.668-78.017C1760.928-73.623,1738.886-102.307,1707.997-113.244z"/>
		<polygon opacity="0.3" fill="#DEBEF4" points="1601.976,-58.847 1601.979,-58.838 1601.98,-58.841 		"/>
		<path fill="#45064C" d="M1606.52-32.284c10.428-17.567,0.588-20.697-3.312-24.732C1606.465-50.143,1601.067-36.735,1606.52-32.284
			z"/>
		<path opacity="0.3" fill="#DEBEF4" d="M1606.52-32.284c10.428-17.567,0.588-20.697-3.312-24.732
			C1606.465-50.143,1601.067-36.735,1606.52-32.284z"/>
		<path fill="#45064C" d="M1603.208-57.016c-0.32-0.676-0.722-1.291-1.228-1.826c-0.001,0.001-0.001,0.002-0.001,0.003
			C1602.218-58.183,1602.652-57.59,1603.208-57.016z"/>
		<path opacity="0.3" fill="#DEBEF4" d="M1603.208-57.016c-0.32-0.676-0.722-1.291-1.228-1.826
			c-0.001,0.001-0.001,0.002-0.001,0.003C1602.218-58.183,1602.652-57.59,1603.208-57.016z"/>
		<path fill="#45064C" d="M1606.068-14.813c24.922,37.283,61.779,56.323,88.313,43.296c16.188-7.946,25.283-26.233,26.68-48.938
			c-4.599,4.336-12.507,5.13-15.496,10.769c-27.828,52.501-47.881,19.198-99.046-22.597
			C1602.892-26.172,1602.324-20.418,1606.068-14.813z"/>
		<path opacity="0.3" fill="#DEBEF4" d="M1606.068-14.813c24.922,37.283,61.779,56.323,88.313,43.296
			c16.188-7.946,25.283-26.233,26.68-48.938c-4.599,4.336-12.507,5.13-15.496,10.769c-27.828,52.501-47.881,19.198-99.046-22.597
			C1602.892-26.172,1602.324-20.418,1606.068-14.813z"/>
	</g>
</g>
<g id="Layer_4">
	<path d="M0,0v1012h1905V0H0z M1375.07,883.19l-181.16,4.689l-164.11-73.57L942.56,671.86L923.08,481.82l77.88-143.34l152.76-110.4
		l173.31-4.48l159.43,71.47l97.94,159.92l16.689,162.689l-91.41,168.23L1375.07,883.19z"/>
</g>
<g id="Layer_2_copy">
	<path display="none" d="M595-197v1560h1300V-197H595z M1509.68,785.91l-134.609,97.28l-181.16,4.689l-164.11-73.57L942.56,671.86
		L923.08,481.82l77.88-143.34l152.76-110.4l173.31-4.48l159.43,71.47l97.94,159.92l16.689,162.689L1509.68,785.91z"/>
	<radialGradient id="SVGID_9_" cx="957.8652" cy="410.1499" r="59.1343" gradientUnits="userSpaceOnUse">
		<stop  offset="0.0345" style="stop-color:#5F389E"/>
		<stop  offset="0.0394" style="stop-color:#5F379D;stop-opacity:0.9989"/>
		<stop  offset="0.1452" style="stop-color:#5E298F;stop-opacity:0.9756"/>
		<stop  offset="0.2737" style="stop-color:#5E2187;stop-opacity:0.9472"/>
		<stop  offset="0.4877" style="stop-color:#5E1F84;stop-opacity:0.9"/>
		<stop  offset="0.6804" style="stop-color:#5C2285;stop-opacity:0.9376"/>
		<stop  offset="0.8081" style="stop-color:#562B88;stop-opacity:0.9625"/>
		<stop  offset="0.9166" style="stop-color:#4B3A8E;stop-opacity:0.9837"/>
		<stop  offset="1" style="stop-color:#3E4B95"/>
	</radialGradient>
	<polygon fill="url(#SVGID_9_)" points="1000.96,338.48 923.08,481.82 914.77,400.77 	"/>
	<radialGradient id="SVGID_10_" cx="986.1797" cy="743.085" r="59.0578" gradientUnits="userSpaceOnUse">
		<stop  offset="0.0345" style="stop-color:#5F389E"/>
		<stop  offset="0.0394" style="stop-color:#5F379D;stop-opacity:0.9989"/>
		<stop  offset="0.1452" style="stop-color:#5E298F;stop-opacity:0.9756"/>
		<stop  offset="0.2737" style="stop-color:#5E2187;stop-opacity:0.9472"/>
		<stop  offset="0.4877" style="stop-color:#5E1F84;stop-opacity:0.9"/>
		<stop  offset="0.6804" style="stop-color:#5C2285;stop-opacity:0.9376"/>
		<stop  offset="0.8081" style="stop-color:#562B88;stop-opacity:0.9625"/>
		<stop  offset="0.9166" style="stop-color:#4B3A8E;stop-opacity:0.9837"/>
		<stop  offset="1" style="stop-color:#3E4B95"/>
	</radialGradient>
	<polygon fill="url(#SVGID_10_)" points="1029.8,814.31 953.67,780.18 942.56,671.86 	"/>
	<radialGradient id="SVGID_11_" cx="1240.375" cy="202.7251" r="63.8436" gradientUnits="userSpaceOnUse">
		<stop  offset="0.0345" style="stop-color:#5F389E"/>
		<stop  offset="0.0394" style="stop-color:#5F379D;stop-opacity:0.9989"/>
		<stop  offset="0.1452" style="stop-color:#5E298F;stop-opacity:0.9756"/>
		<stop  offset="0.2737" style="stop-color:#5E2187;stop-opacity:0.9472"/>
		<stop  offset="0.4877" style="stop-color:#5E1F84;stop-opacity:0.9"/>
		<stop  offset="0.6804" style="stop-color:#5C2285;stop-opacity:0.9376"/>
		<stop  offset="0.8081" style="stop-color:#562B88;stop-opacity:0.9625"/>
		<stop  offset="0.9166" style="stop-color:#4B3A8E;stop-opacity:0.9837"/>
		<stop  offset="1" style="stop-color:#3E4B95"/>
	</radialGradient>
	<polygon fill="url(#SVGID_11_)" points="1327.03,223.6 1153.72,228.08 1223.9,177.37 	"/>
	<radialGradient id="SVGID_12_" cx="1284.4902" cy="909.6953" r="66.7355" gradientUnits="userSpaceOnUse">
		<stop  offset="0.0345" style="stop-color:#5F389E"/>
		<stop  offset="0.0394" style="stop-color:#5F379D;stop-opacity:0.9989"/>
		<stop  offset="0.1452" style="stop-color:#5E298F;stop-opacity:0.9756"/>
		<stop  offset="0.2737" style="stop-color:#5E2187;stop-opacity:0.9472"/>
		<stop  offset="0.4877" style="stop-color:#5E1F84;stop-opacity:0.9"/>
		<stop  offset="0.6804" style="stop-color:#5C2285;stop-opacity:0.9376"/>
		<stop  offset="0.8081" style="stop-color:#562B88;stop-opacity:0.9625"/>
		<stop  offset="0.9166" style="stop-color:#4B3A8E;stop-opacity:0.9837"/>
		<stop  offset="1" style="stop-color:#3E4B95"/>
	</radialGradient>
	<polygon fill="url(#SVGID_12_)" points="1375.07,883.19 1301.71,936.2 1193.91,887.88 	"/>
	<radialGradient id="SVGID_13_" cx="1535.4297" cy="375.0303" r="66.3013" gradientUnits="userSpaceOnUse">
		<stop  offset="0.0345" style="stop-color:#5F389E"/>
		<stop  offset="0.0394" style="stop-color:#5F379D;stop-opacity:0.9989"/>
		<stop  offset="0.1452" style="stop-color:#5E298F;stop-opacity:0.9756"/>
		<stop  offset="0.2737" style="stop-color:#5E2187;stop-opacity:0.9472"/>
		<stop  offset="0.4877" style="stop-color:#5E1F84;stop-opacity:0.9"/>
		<stop  offset="0.6804" style="stop-color:#5C2285;stop-opacity:0.9376"/>
		<stop  offset="0.8081" style="stop-color:#562B88;stop-opacity:0.9625"/>
		<stop  offset="0.9166" style="stop-color:#4B3A8E;stop-opacity:0.9837"/>
		<stop  offset="1" style="stop-color:#3E4B95"/>
	</radialGradient>
	<polygon fill="url(#SVGID_13_)" points="1584.4,454.99 1486.46,295.07 1571.93,333.38 	"/>
	<radialGradient id="SVGID_14_" cx="1560.2598" cy="701.7949" r="69.4036" gradientUnits="userSpaceOnUse">
		<stop  offset="0.0345" style="stop-color:#5F389E"/>
		<stop  offset="0.0394" style="stop-color:#5F379D;stop-opacity:0.9989"/>
		<stop  offset="0.1452" style="stop-color:#5E298F;stop-opacity:0.9756"/>
		<stop  offset="0.2737" style="stop-color:#5E2187;stop-opacity:0.9472"/>
		<stop  offset="0.4877" style="stop-color:#5E1F84;stop-opacity:0.9"/>
		<stop  offset="0.6804" style="stop-color:#5C2285;stop-opacity:0.9376"/>
		<stop  offset="0.8081" style="stop-color:#562B88;stop-opacity:0.9625"/>
		<stop  offset="0.9166" style="stop-color:#4B3A8E;stop-opacity:0.9837"/>
		<stop  offset="1" style="stop-color:#3E4B95"/>
	</radialGradient>
	<polygon fill="url(#SVGID_14_)" points="1610.84,712.8 1509.68,785.91 1601.09,617.68 	"/>
	<radialGradient id="SVGID_15_" cx="910.0449" cy="576.8398" r="71.0145" gradientUnits="userSpaceOnUse">
		<stop  offset="0.0345" style="stop-color:#5F389E"/>
		<stop  offset="0.0394" style="stop-color:#5F379D;stop-opacity:0.9989"/>
		<stop  offset="0.1452" style="stop-color:#5E298F;stop-opacity:0.9756"/>
		<stop  offset="0.2737" style="stop-color:#5E2187;stop-opacity:0.9472"/>
		<stop  offset="0.4877" style="stop-color:#5E1F84;stop-opacity:0.9"/>
		<stop  offset="0.6804" style="stop-color:#5C2285;stop-opacity:0.9376"/>
		<stop  offset="0.8081" style="stop-color:#562B88;stop-opacity:0.9625"/>
		<stop  offset="0.9166" style="stop-color:#4B3A8E;stop-opacity:0.9837"/>
		<stop  offset="1" style="stop-color:#3E4B95"/>
	</radialGradient>
	<polygon fill="url(#SVGID_15_)" points="942.56,671.86 877.53,565.66 923.08,481.82 	"/>
	<radialGradient id="SVGID_16_" cx="1077.3398" cy="283.2803" r="66.637" gradientUnits="userSpaceOnUse">
		<stop  offset="0.0345" style="stop-color:#5F389E"/>
		<stop  offset="0.0394" style="stop-color:#5F379D;stop-opacity:0.9989"/>
		<stop  offset="0.1452" style="stop-color:#5E298F;stop-opacity:0.9756"/>
		<stop  offset="0.2737" style="stop-color:#5E2187;stop-opacity:0.9472"/>
		<stop  offset="0.4877" style="stop-color:#5E1F84;stop-opacity:0.9"/>
		<stop  offset="0.6804" style="stop-color:#5C2285;stop-opacity:0.9376"/>
		<stop  offset="0.8081" style="stop-color:#562B88;stop-opacity:0.9625"/>
		<stop  offset="0.9166" style="stop-color:#4B3A8E;stop-opacity:0.9837"/>
		<stop  offset="1" style="stop-color:#3E4B95"/>
	</radialGradient>
	<polygon fill="url(#SVGID_16_)" points="1153.72,228.08 1000.96,338.48 1059.62,230.52 	"/>
	<radialGradient id="SVGID_17_" cx="1111.855" cy="852.6094" r="64.0313" gradientUnits="userSpaceOnUse">
		<stop  offset="0.0345" style="stop-color:#5F389E"/>
		<stop  offset="0.0394" style="stop-color:#5F379D;stop-opacity:0.9989"/>
		<stop  offset="0.1452" style="stop-color:#5E298F;stop-opacity:0.9756"/>
		<stop  offset="0.2737" style="stop-color:#5E2187;stop-opacity:0.9472"/>
		<stop  offset="0.4877" style="stop-color:#5E1F84;stop-opacity:0.9"/>
		<stop  offset="0.6804" style="stop-color:#5C2285;stop-opacity:0.9376"/>
		<stop  offset="0.8081" style="stop-color:#562B88;stop-opacity:0.9625"/>
		<stop  offset="0.9166" style="stop-color:#4B3A8E;stop-opacity:0.9837"/>
		<stop  offset="1" style="stop-color:#3E4B95"/>
	</radialGradient>
	<polygon fill="url(#SVGID_17_)" points="1193.91,887.88 1076.71,890.91 1029.8,814.31 	"/>
	<radialGradient id="SVGID_18_" cx="1406.7451" cy="257.8599" r="62.2055" gradientUnits="userSpaceOnUse">
		<stop  offset="0.0345" style="stop-color:#5F389E"/>
		<stop  offset="0.0394" style="stop-color:#5F379D;stop-opacity:0.9989"/>
		<stop  offset="0.1452" style="stop-color:#5E298F;stop-opacity:0.9756"/>
		<stop  offset="0.2737" style="stop-color:#5E2187;stop-opacity:0.9472"/>
		<stop  offset="0.4877" style="stop-color:#5E1F84;stop-opacity:0.9"/>
		<stop  offset="0.6804" style="stop-color:#5C2285;stop-opacity:0.9376"/>
		<stop  offset="0.8081" style="stop-color:#562B88;stop-opacity:0.9625"/>
		<stop  offset="0.9166" style="stop-color:#4B3A8E;stop-opacity:0.9837"/>
		<stop  offset="1" style="stop-color:#3E4B95"/>
	</radialGradient>
	<polygon fill="url(#SVGID_18_)" points="1486.46,295.07 1327.03,223.6 1440.89,220.65 	"/>
	<radialGradient id="SVGID_19_" cx="1442.375" cy="834.5508" r="58.7186" gradientUnits="userSpaceOnUse">
		<stop  offset="0.0345" style="stop-color:#5F389E"/>
		<stop  offset="0.0394" style="stop-color:#5F379D;stop-opacity:0.9989"/>
		<stop  offset="0.1452" style="stop-color:#5E298F;stop-opacity:0.9756"/>
		<stop  offset="0.2737" style="stop-color:#5E2187;stop-opacity:0.9472"/>
		<stop  offset="0.4877" style="stop-color:#5E1F84;stop-opacity:0.9"/>
		<stop  offset="0.6804" style="stop-color:#5C2285;stop-opacity:0.9376"/>
		<stop  offset="0.8081" style="stop-color:#562B88;stop-opacity:0.9625"/>
		<stop  offset="0.9166" style="stop-color:#4B3A8E;stop-opacity:0.9837"/>
		<stop  offset="1" style="stop-color:#3E4B95"/>
	</radialGradient>
	<polygon fill="url(#SVGID_19_)" points="1509.68,785.91 1457.99,881.04 1375.07,883.19 	"/>
	<radialGradient id="SVGID_20_" cx="1612.2402" cy="536.335" r="60.7948" gradientUnits="userSpaceOnUse">
		<stop  offset="0.0345" style="stop-color:#5F389E"/>
		<stop  offset="0.0394" style="stop-color:#5F379D;stop-opacity:0.9989"/>
		<stop  offset="0.1452" style="stop-color:#5E298F;stop-opacity:0.9756"/>
		<stop  offset="0.2737" style="stop-color:#5E2187;stop-opacity:0.9472"/>
		<stop  offset="0.4877" style="stop-color:#5E1F84;stop-opacity:0.9"/>
		<stop  offset="0.6804" style="stop-color:#5C2285;stop-opacity:0.9376"/>
		<stop  offset="0.8081" style="stop-color:#562B88;stop-opacity:0.9625"/>
		<stop  offset="0.9166" style="stop-color:#4B3A8E;stop-opacity:0.9837"/>
		<stop  offset="1" style="stop-color:#3E4B95"/>
	</radialGradient>
	<polygon fill="url(#SVGID_20_)" points="1640.08,545.91 1601.09,617.68 1584.4,454.99 	"/>
	<g>
		<polygon fill="#FCFCFC" points="353,1062.539 633.367,731.214 914.051,400.158 913.938,401.211 754.137,102.284 674.468,-47.305 
			595,-197 675.417,-47.812 755.632,101.483 915.599,400.323 915.901,400.888 915.486,401.376 634.402,732.093 		"/>
	</g>
	<g>
		<path fill="#FCFCFC" d="M953.673,780.182c0,0-22.228,35.415-55.569,88.537c-16.737,26.519-36.264,57.457-57.186,90.606
			c-20.98,33.111-43.359,68.43-65.738,103.749c-22.455,35.271-44.91,70.541-65.961,103.607
			c-21.11,33.029-40.813,63.855-57.701,90.279c-33.911,52.761-56.518,87.935-56.518,87.935s22.227-35.415,55.567-88.538
			c16.738-26.519,36.265-57.457,57.187-90.605c20.981-33.111,43.36-68.431,65.739-103.749
			c22.456-35.271,44.911-70.541,65.962-103.606c21.11-33.029,40.813-63.855,57.702-90.279
			C931.066,815.356,953.673,780.182,953.673,780.182z"/>
	</g>
	<g>
		<polygon fill="#FCFCFC" points="992.794,1363 1069.692,1256.061 1146.703,1149.202 1300.946,935.647 1301.495,934.887 
			1302.257,935.436 1598.85,1148.91 1746.991,1255.862 1895,1363 1746.362,1256.736 1597.858,1150.288 1301.159,936.962 
			1302.47,936.75 1147.799,1149.996 1070.353,1256.538 		"/>
	</g>
	<g>
		<path fill="#FCFCFC" d="M1610.839,712.799c0,0,4.483,3.436,12.33,9.447c7.824,6.039,19.003,14.666,32.417,25.019
			c13.375,10.401,28.979,22.536,45.698,35.538c16.677,13.057,34.465,26.983,52.253,40.91c17.732,13.998,35.465,27.996,52.089,41.118
			c16.63,13.116,32.052,25.482,45.321,36.019c13.227,10.592,24.248,19.418,31.963,25.597c7.693,6.206,12.09,9.752,12.09,9.752
			s-4.483-3.435-12.33-9.446c-7.825-6.039-19.004-14.665-32.418-25.018c-13.371-10.407-29.027-22.476-45.698-35.539
			c-16.676-13.057-34.464-26.984-52.252-40.911c-17.731-13.998-35.464-27.996-52.088-41.119
			c-16.581-13.178-32.057-25.478-45.321-36.02c-13.227-10.591-24.248-19.417-31.963-25.596
			C1615.235,716.345,1610.839,712.799,1610.839,712.799z"/>
	</g>
	<g>
		<path fill="#FCFCFC" d="M1571.935,333.383c0,0,20-33.266,50-83.164c15.067-24.908,32.646-53.968,51.48-85.103
			c18.894-31.099,39.046-64.271,59.199-97.444c20.229-33.125,40.46-66.251,59.425-97.307c19.025-31.019,36.781-59.97,52.001-84.786
			C1874.616-163.968,1895-197,1895-197s-19.999,33.266-49.998,83.165c-15.067,24.908-32.646,53.968-51.481,85.103
			c-18.894,31.099-39.047,64.271-59.2,97.443c-20.23,33.125-40.461,66.25-59.426,97.306c-19.025,31.019-36.782,59.97-52.002,84.786
			C1592.317,300.351,1571.935,333.383,1571.935,333.383z"/>
	</g>
	<g>
		<polygon fill="#FCFCFC" points="1397.834,-197 1354.75,-103.223 1311.514,-9.516 1224.774,177.774 1224.153,179.115 
			1223.176,178.005 1058.226,-9.273 975.923,-103.064 893.784,-197 976.703,-103.752 1059.458,-10.359 1224.623,176.729 
			1223.024,176.961 1310.219,-10.117 1353.951,-103.594 		"/>
	</g>
</g>
</svg>
