<svg id="visual" viewBox="0 0 900 600" width="900" height="600" xmlns="http://www.w3.org/2000/svg" xmlns:xlink="http://www.w3.org/1999/xlink" version="1.1"><rect x="0" y="0" width="900" height="600" fill="#fcfeff"></rect><path d="M0 444L18.8 437.7C37.7 431.3 75.3 418.7 112.8 427.7C150.3 436.7 187.7 467.3 225.2 479.3C262.7 491.3 300.3 484.7 337.8 479.3C375.3 474 412.7 470 450.2 461.7C487.7 453.3 525.3 440.7 562.8 443.3C600.3 446 637.7 464 675.2 461.8C712.7 459.7 750.3 437.3 787.8 439.3C825.3 441.3 862.7 467.7 881.3 480.8L900 494L900 601L881.3 601C862.7 601 825.3 601 787.8 601C750.3 601 712.7 601 675.2 601C637.7 601 600.3 601 562.8 601C525.3 601 487.7 601 450.2 601C412.7 601 375.3 601 337.8 601C300.3 601 262.7 601 225.2 601C187.7 601 150.3 601 112.8 601C75.3 601 37.7 601 18.8 601L0 601Z" fill="#330775"></path><path d="M0 525L18.8 519C37.7 513 75.3 501 112.8 491.5C150.3 482 187.7 475 225.2 480.2C262.7 485.3 300.3 502.7 337.8 508C375.3 513.3 412.7 506.7 450.2 504.7C487.7 502.7 525.3 505.3 562.8 511.3C600.3 517.3 637.7 526.7 675.2 529.8C712.7 533 750.3 530 787.8 530.3C825.3 530.7 862.7 534.3 881.3 536.2L900 538L900 601L881.3 601C862.7 601 825.3 601 787.8 601C750.3 601 712.7 601 675.2 601C637.7 601 600.3 601 562.8 601C525.3 601 487.7 601 450.2 601C412.7 601 375.3 601 337.8 601C300.3 601 262.7 601 225.2 601C187.7 601 150.3 601 112.8 601C75.3 601 37.7 601 18.8 601L0 601Z" fill="#4d057a"></path><path d="M0 529L18.8 532.3C37.7 535.7 75.3 542.3 112.8 549.8C150.3 557.3 187.7 565.7 225.2 569.5C262.7 573.3 300.3 572.7 337.8 561.8C375.3 551 412.7 530 450.2 524.7C487.7 519.3 525.3 529.7 562.8 540.7C600.3 551.7 637.7 563.3 675.2 568.2C712.7 573 750.3 571 787.8 562.7C825.3 554.3 862.7 539.7 881.3 532.3L900 525L900 601L881.3 601C862.7 601 825.3 601 787.8 601C750.3 601 712.7 601 675.2 601C637.7 601 600.3 601 562.8 601C525.3 601 487.7 601 450.2 601C412.7 601 375.3 601 337.8 601C300.3 601 262.7 601 225.2 601C187.7 601 150.3 601 112.8 601C75.3 601 37.7 601 18.8 601L0 601Z" fill="#64047e"></path></svg>